<?xml version="1.0" encoding="UTF-8" standalone="no"?>
<!-- Created with Inkscape (http://www.inkscape.org/) -->
<svg
   xmlns:dc="http://purl.org/dc/elements/1.1/"
   xmlns:cc="http://web.resource.org/cc/"
   xmlns:rdf="http://www.w3.org/1999/02/22-rdf-syntax-ns#"
   xmlns:svg="http://www.w3.org/2000/svg"
   xmlns="http://www.w3.org/2000/svg"
   xmlns:sodipodi="http://sodipodi.sourceforge.net/DTD/sodipodi-0.dtd"
   xmlns:inkscape="http://www.inkscape.org/namespaces/inkscape"
   width="549.64429"
   height="662.52454"
   id="svg2"
   sodipodi:version="0.32"
   inkscape:version="0.44+devel"
   sodipodi:modified="true"
   version="1.0">
  <defs
     id="defs4" />
  <sodipodi:namedview
     id="base"
     pagecolor="#ffffff"
     bordercolor="#666666"
     borderopacity="1.0"
     gridtolerance="10000"
     guidetolerance="10"
     objecttolerance="10"
     inkscape:pageopacity="0.0"
     inkscape:pageshadow="2"
     inkscape:zoom="0.32396785"
     inkscape:cx="398.57143"
     inkscape:cy="414.56612"
     inkscape:document-units="px"
     inkscape:current-layer="layer1"
     inkscape:window-width="744"
     inkscape:window-height="577"
     inkscape:window-x="88"
     inkscape:window-y="116" />
  <metadata
     id="metadata7">
    <rdf:RDF>
      <cc:Work
         rdf:about="">
        <dc:format>image/svg+xml</dc:format>
        <dc:type
           rdf:resource="http://purl.org/dc/dcmitype/StillImage" />
      </cc:Work>
    </rdf:RDF>
  </metadata>
  <g
     inkscape:label="Layer 1"
     inkscape:groupmode="layer"
     id="layer1"
     transform="translate(-3.5958454,-202.79075)">
    <path
       style="fill:none;fill-opacity:0.75;fill-rule:evenodd;stroke:#000000;stroke-width:2;stroke-linecap:butt;stroke-linejoin:miter;stroke-opacity:1"
       d="M 217.14286,203.79075 C 21.928341,208.70892 20.943297,471.53807 65.714289,600.93361 C 64.618946,576.37406 79.473393,557.94482 91.42857,540.93361"
       id="path2160"
       sodipodi:nodetypes="ccc" />
    <path
       style="fill:none;fill-opacity:0.75;fill-rule:evenodd;stroke:#000000;stroke-width:2;stroke-linecap:butt;stroke-linejoin:miter;stroke-opacity:1"
       d="M 48.571429,429.50504 C 108.57143,440.93361 102.85714,580.93361 102.85714,580.93361 C 102.85714,580.93361 180,623.79075 268.57143,620.93361 C 357.14286,618.07647 428.57143,583.79075 428.57143,583.79075"
       id="path2162" />
    <path
       style="fill:none;fill-opacity:0.75;fill-rule:evenodd;stroke:#000000;stroke-width:2;stroke-linecap:butt;stroke-linejoin:miter;stroke-opacity:1"
       d="M 305.71429,363.79075 L 282.85714,338.07647 C 243.33531,410.94349 198.54242,457.45526 151.42857,492.36218"
       id="path2164"
       sodipodi:nodetypes="ccc" />
    <path
       style="fill:none;fill-opacity:0.75;fill-rule:evenodd;stroke:#000000;stroke-width:2;stroke-linecap:butt;stroke-linejoin:miter;stroke-opacity:1"
       d="M 325.71429,369.50504 L 342.85714,343.79075 C 387.25351,422.96342 435.79496,499.17531 428.57143,615.21933"
       id="path2166"
       sodipodi:nodetypes="ccc" />
    <path
       style="fill:none;fill-opacity:0.75;fill-rule:evenodd;stroke:#000000;stroke-width:2;stroke-linecap:butt;stroke-linejoin:miter;stroke-opacity:1"
       d="M 302.85714,206.64789 C 348.57143,206.6479 534.28571,303.79075 491.42857,620.93361 L 471.42857,518.07647 L 457.14286,626.6479 C 457.14286,626.6479 471.42857,360.93361 377.14286,269.50504"
       id="path2170"
       sodipodi:nodetypes="ccccc" />
    <g
       id="g2190"
       transform="matrix(0.9839142,0.1786417,-0.1786417,0.9839142,1707.2447,-187.03171)"
       style="stroke-width:2">
      <path
         id="path2184"
         d="M -1241.7334,891.6431 C -1242.4422,895.00934 -1242.8438,898.6097 -1242.8438,902.37057 C -1242.8438,920.50773 -1233.8918,935.22773 -1222.8571,935.22775 C -1211.8224,935.22775 -1202.8661,920.50772 -1202.8661,902.37057 C -1202.8661,898.5527 -1203.2812,894.90114 -1204.0107,891.49152 C -1204.1555,892.44547 -1204.276,893.36182 -1204.448,894.35675 C -1204.7818,896.28721 -1205.1689,898.28857 -1205.6098,900.35611 C -1205.8303,901.38988 -1206.0502,902.36101 -1206.2743,903.26534 C -1206.4985,904.16967 -1206.7271,905.00686 -1206.956,905.7883 C -1207.1849,906.56974 -1207.4157,907.29413 -1207.6505,907.95922 C -1207.8854,908.62432 -1208.1246,909.23258 -1208.3665,909.78788 C -1208.6084,910.34318 -1208.8537,910.84667 -1209.1039,911.29872 C -1209.354,911.75078 -1209.6075,912.15106 -1209.867,912.50642 C -1210.1265,912.86178 -1210.3901,913.17021 -1210.6601,913.43542 C -1210.9302,913.70063 -1211.2058,913.92366 -1211.4875,914.10527 C -1211.7693,914.28688 -1212.059,914.4261 -1212.3535,914.53066 C -1212.6481,914.63521 -1212.9496,914.70196 -1213.2581,914.73601 C -1213.5667,914.77006 -1213.882,914.77081 -1214.2056,914.7409 C -1214.5292,914.711 -1214.8603,914.6522 -1215.2002,914.56488 C -1215.5401,914.47757 -1215.8889,914.36568 -1216.2463,914.22751 C -1216.6036,914.08934 -1216.9679,913.92593 -1217.3438,913.74345 C -1218.0956,913.37849 -1218.8859,912.93111 -1219.7189,912.42819 C -1219.9271,912.30246 -1220.1267,912.16573 -1220.3148,912.02236 C -1220.5029,911.879 -1220.6818,911.72726 -1220.8507,911.56764 C -1221.1885,911.24841 -1221.4881,910.89718 -1221.7553,910.5213 C -1222.0224,910.14542 -1222.2538,909.74477 -1222.4584,909.32338 C -1222.663,908.90199 -1222.8399,908.46389 -1222.99,908.00812 C -1223.14,907.55235 -1223.2637,907.07897 -1223.3672,906.59995 C -1223.4708,906.12094 -1223.5551,905.63402 -1223.6202,905.14289 C -1223.6853,904.65177 -1223.7313,904.15839 -1223.766,903.66628 C -1223.8006,903.17417 -1223.8223,902.6814 -1223.8345,902.19944 C -1223.859,901.23552 -1223.8471,900.3032 -1223.8303,899.44667 C -1223.8134,898.59015 -1223.7941,897.81359 -1223.8003,897.15352 C -1223.8033,896.82348 -1223.8094,896.52297 -1223.8303,896.25875 C -1223.8511,895.99452 -1223.8864,895.7664 -1223.9331,895.57911 C -1223.9798,895.39183 -1224.0412,895.24316 -1224.1218,895.14395 C -1224.1621,895.09435 -1224.2044,895.05699 -1224.2547,895.03149 C -1224.3049,895.006 -1224.3606,894.99238 -1224.4219,894.99238 C -1224.5444,894.99238 -1224.6621,895.02278 -1224.7777,895.0755 C -1224.8933,895.12821 -1225.0074,895.2062 -1225.1207,895.3053 C -1225.3473,895.5035 -1225.5745,895.78587 -1225.8195,896.13162 C -1226.0645,896.47738 -1226.3297,896.88198 -1226.6298,897.32465 C -1226.9299,897.76732 -1227.2667,898.24876 -1227.6587,898.7377 C -1227.8547,898.98218 -1228.0631,899.22946 -1228.2889,899.47601 C -1228.5147,899.72256 -1228.7574,899.96714 -1229.0177,900.20943 C -1229.278,900.45172 -1229.5544,900.69159 -1229.8537,900.92329 C -1230.153,901.155 -1230.4753,901.37836 -1230.8183,901.59315 C -1231.1613,901.80793 -1231.5246,902.01279 -1231.9158,902.20433 C -1232.307,902.39587 -1232.7237,902.57532 -1233.1677,902.73728 C -1233.6117,902.89924 -1234.0853,903.04639 -1234.5867,903.17244 C -1235.0882,903.2985 -1235.6181,903.40155 -1236.1816,903.48537 C -1236.4633,903.52728 -1236.7298,903.55103 -1236.9832,903.55871 C -1237.2367,903.56639 -1237.4769,903.55942 -1237.7035,903.53426 C -1237.9301,903.50911 -1238.1452,903.46863 -1238.3466,903.41203 C -1238.5479,903.35542 -1238.7349,903.28355 -1238.9125,903.19689 C -1239.0901,903.11023 -1239.2587,903.00906 -1239.4141,902.89374 C -1239.5695,902.77842 -1239.7123,902.65007 -1239.8471,902.50748 C -1239.9818,902.36489 -1240.1087,902.20656 -1240.2243,902.03809 C -1240.3399,901.86962 -1240.4436,901.68832 -1240.5416,901.49536 C -1240.7376,901.10944 -1240.8999,900.67517 -1241.0346,900.19965 C -1241.1694,899.72413 -1241.279,899.20858 -1241.3647,898.65458 C -1241.4505,898.10059 -1241.5129,897.51082 -1241.5619,896.88949 C -1241.6109,896.26815 -1241.6446,895.61613 -1241.6691,894.93859 C -1241.7064,893.9066 -1241.7171,892.77291 -1241.7334,891.6431 z "
         style="opacity:1;fill:#000000;fill-opacity:1;stroke:#000000;stroke-width:2;stroke-linecap:round;stroke-miterlimit:4;stroke-dasharray:none;stroke-dashoffset:0;stroke-opacity:1" />
      <path
         id="path2176"
         d="M -1241.7334,891.6431 C -1241.7171,892.77291 -1241.7064,893.9066 -1241.6691,894.93859 C -1241.6446,895.61613 -1241.6109,896.26815 -1241.5619,896.88949 C -1241.5129,897.51082 -1241.4505,898.10059 -1241.3647,898.65458 C -1241.279,899.20858 -1241.1694,899.72413 -1241.0346,900.19965 C -1240.8999,900.67517 -1240.7376,901.10944 -1240.5416,901.49536 C -1240.4436,901.68832 -1240.3399,901.86962 -1240.2243,902.03809 C -1240.1087,902.20656 -1239.9818,902.36489 -1239.8471,902.50748 C -1239.7123,902.65007 -1239.5695,902.77842 -1239.4141,902.89374 C -1239.2587,903.00906 -1239.0901,903.11023 -1238.9125,903.19689 C -1238.7349,903.28355 -1238.5479,903.35542 -1238.3466,903.41203 C -1238.1452,903.46863 -1237.9301,903.50911 -1237.7035,903.53426 C -1237.4769,903.55942 -1237.2367,903.56639 -1236.9832,903.55871 C -1236.7298,903.55103 -1236.4633,903.52728 -1236.1816,903.48537 C -1235.6181,903.40155 -1235.0882,903.2985 -1234.5867,903.17244 C -1234.0853,903.04639 -1233.6117,902.89924 -1233.1677,902.73728 C -1232.7237,902.57532 -1232.307,902.39587 -1231.9158,902.20433 C -1231.5246,902.01279 -1231.1613,901.80793 -1230.8183,901.59315 C -1230.4753,901.37836 -1230.153,901.155 -1229.8537,900.92329 C -1229.5544,900.69159 -1229.278,900.45172 -1229.0177,900.20943 C -1228.7574,899.96714 -1228.5147,899.72256 -1228.2889,899.47601 C -1228.0631,899.22946 -1227.8547,898.98218 -1227.6587,898.7377 C -1227.2667,898.24876 -1226.9299,897.76732 -1226.6298,897.32465 C -1226.3297,896.88198 -1226.0645,896.47738 -1225.8195,896.13162 C -1225.5745,895.78587 -1225.3473,895.5035 -1225.1207,895.3053 C -1225.0074,895.2062 -1224.8933,895.12821 -1224.7777,895.0755 C -1224.6621,895.02278 -1224.5444,894.99238 -1224.4219,894.99238 C -1224.3606,894.99238 -1224.3049,895.006 -1224.2547,895.03149 C -1224.2044,895.05699 -1224.1621,895.09435 -1224.1218,895.14395 C -1224.0412,895.24316 -1223.9798,895.39183 -1223.9331,895.57911 C -1223.8864,895.7664 -1223.8511,895.99452 -1223.8303,896.25875 C -1223.8094,896.52297 -1223.8033,896.82348 -1223.8003,897.15352 C -1223.7941,897.81359 -1223.8134,898.59015 -1223.8303,899.44667 C -1223.8471,900.3032 -1223.859,901.23552 -1223.8345,902.19944 C -1223.8223,902.6814 -1223.8006,903.17417 -1223.766,903.66628 C -1223.7313,904.15839 -1223.6853,904.65177 -1223.6202,905.14289 C -1223.5551,905.63402 -1223.4708,906.12094 -1223.3672,906.59995 C -1223.2637,907.07897 -1223.14,907.55235 -1222.99,908.00812 C -1222.8399,908.46389 -1222.663,908.90199 -1222.4584,909.32338 C -1222.2538,909.74477 -1222.0224,910.14542 -1221.7553,910.5213 C -1221.4881,910.89718 -1221.1885,911.24841 -1220.8507,911.56764 C -1220.6818,911.72726 -1220.5029,911.879 -1220.3148,912.02236 C -1220.1267,912.16573 -1219.9271,912.30246 -1219.7189,912.42819 C -1218.8859,912.93111 -1218.0956,913.37849 -1217.3438,913.74345 C -1216.9679,913.92593 -1216.6036,914.08934 -1216.2463,914.22751 C -1215.8889,914.36568 -1215.5401,914.47757 -1215.2002,914.56488 C -1214.8603,914.6522 -1214.5292,914.711 -1214.2056,914.7409 C -1213.882,914.77081 -1213.5667,914.77006 -1213.2581,914.73601 C -1212.9496,914.70196 -1212.6481,914.63521 -1212.3535,914.53066 C -1212.059,914.4261 -1211.7693,914.28688 -1211.4875,914.10527 C -1211.2058,913.92366 -1210.9302,913.70063 -1210.6601,913.43542 C -1210.3901,913.17021 -1210.1265,912.86178 -1209.867,912.50642 C -1209.6075,912.15106 -1209.354,911.75078 -1209.1039,911.29872 C -1208.8537,910.84667 -1208.6084,910.34318 -1208.3665,909.78788 C -1208.1246,909.23258 -1207.8854,908.62432 -1207.6505,907.95922 C -1207.4157,907.29413 -1207.1849,906.56974 -1206.956,905.7883 C -1206.7271,905.00686 -1206.4985,904.16967 -1206.2743,903.26534 C -1206.0502,902.36101 -1205.8303,901.38988 -1205.6098,900.35611 C -1205.1689,898.28857 -1204.7818,896.28721 -1204.448,894.35675 C -1204.276,893.36182 -1204.1555,892.44547 -1204.0107,891.49152 C -1206.7469,878.70344 -1214.1452,869.5134 -1222.8571,869.5134 C -1231.6036,869.5134 -1239.0239,878.77531 -1241.7334,891.6431 z "
         style="opacity:1;fill:#ffffff;fill-opacity:1;stroke:#000000;stroke-width:2;stroke-linecap:round;stroke-miterlimit:4;stroke-dasharray:none;stroke-dashoffset:0;stroke-opacity:1" />
    </g>
    <path
       style="fill:none;fill-opacity:0.75;fill-rule:evenodd;stroke:#000000;stroke-width:4;stroke-linecap:butt;stroke-linejoin:miter;stroke-opacity:1"
       d="M 160.37698,474.41339 C 193.88028,437.43605 212.8234,452.83333 213.6605,486.26486"
       id="path2194" />
    <path
       style="fill:none;fill-opacity:0.75;fill-rule:evenodd;stroke:#000000;stroke-width:2;stroke-linecap:butt;stroke-linejoin:miter;stroke-opacity:1"
       d="M 231.96876,520.70549 C 242.37253,532.02108 269.82258,536.66098 282.69011,529.43016 C 280.29831,541.03266 270.84651,599.37828 249.63573,592.58707 C 228.42495,585.79597 237.79054,547.30605 239.67789,526.69636"
       id="path2196" />
    <path
       style="fill:none;fill-opacity:0.75;fill-rule:evenodd;stroke:#000000;stroke-width:2;stroke-linecap:butt;stroke-linejoin:miter;stroke-opacity:1"
       d="M 222.92086,341.39278 C 165.77801,461.39278 88.635148,515.67849 88.635148,515.67849"
       id="path2198" />
    <path
       style="fill:none;fill-opacity:0.75;fill-rule:evenodd;stroke:#000000;stroke-width:2;stroke-linecap:butt;stroke-linejoin:miter;stroke-opacity:1"
       d="M 171.42857,332.36218 C 137.14286,438.07647 105.71429,509.50504 77.142857,543.79075"
       id="path2200" />
    <path
       style="fill:none;fill-opacity:0.75;fill-rule:evenodd;stroke:#000000;stroke-width:2;stroke-linecap:butt;stroke-linejoin:miter;stroke-opacity:1"
       d="M 120,309.50504 C 117.14286,406.6479 37.142857,506.6479 14.285714,535.21933"
       id="path2202" />
    <path
       style="fill:none;fill-opacity:0.75;fill-rule:evenodd;stroke:#000000;stroke-width:2;stroke-linecap:butt;stroke-linejoin:miter;stroke-opacity:1"
       d="M 154.28571,306.6479 C 125.71429,440.93361 74.285714,495.21933 37.142857,492.36218"
       id="path2204" />
    <path
       style="fill:none;fill-opacity:0.75;fill-rule:evenodd;stroke:#000000;stroke-width:2;stroke-linecap:butt;stroke-linejoin:miter;stroke-opacity:1"
       d="M 391.42857,358.07647 C 416.74251,440.6427 442.85714,606.6479 442.85714,606.6479 C 440.18274,541.88599 449.10888,477.12409 425.71429,412.36218"
       id="path2206"
       sodipodi:nodetypes="ccc" />
    <path
       style="fill:none;fill-opacity:0.75;fill-rule:evenodd;stroke:#000000;stroke-width:2;stroke-linecap:butt;stroke-linejoin:miter;stroke-opacity:1"
       d="M 188.57143,612.36218 C 178.75636,668.99186 142.03916,731.00197 94.285714,795.21933 C 86.352538,819.01886 364.1291,848.5463 400,806.6479 C 399.20111,775.62298 346.09993,608.19113 349.5727,610.50631"
       id="path2208"
       sodipodi:nodetypes="cccc" />
    <path
       style="fill:none;fill-opacity:0.75;fill-rule:evenodd;stroke:#000000;stroke-width:2;stroke-linecap:butt;stroke-linejoin:miter;stroke-opacity:1"
       d="M 160,818.07647 C 160,818.07647 160,852.36218 168.57143,858.07647 C 177.14286,863.79075 191.97067,821.1632 191.97067,821.1632"
       id="path2210"
       sodipodi:nodetypes="csc" />
    <path
       style="fill:none;fill-opacity:0.75;fill-rule:evenodd;stroke:#000000;stroke-width:2;stroke-linecap:butt;stroke-linejoin:miter;stroke-opacity:1"
       d="M 300,826.6479 C 300,826.6479 308.57143,869.50504 317.14286,863.79075 C 325.71429,858.07647 334.28571,826.10579 334.28571,826.10579"
       id="path2212"
       sodipodi:nodetypes="csc" />
    <path
       style="fill:none;fill-opacity:0.75;fill-rule:evenodd;stroke:#000000;stroke-width:2;stroke-linecap:butt;stroke-linejoin:miter;stroke-opacity:1"
       d="M 170.65689,607.96168 C 170.65689,607.96168 122.85714,689.50504 134.28571,692.36218 C 145.71429,695.21933 180,649.50504 180,649.50504"
       id="path2214"
       sodipodi:nodetypes="csc" />
    <path
       style="fill:none;fill-opacity:0.75;fill-rule:evenodd;stroke:#000000;stroke-width:2;stroke-linecap:butt;stroke-linejoin:miter;stroke-opacity:1"
       d="M 369.68549,689.22462 C 386.65128,685.67204 413.98009,688.01324 414.15688,664.66987 C 410.06442,651.30117 392.87609,659.75892 392.87609,659.75892 C 397.51421,656.21212 394.76898,637.05895 393.14892,628.65623 C 393.01486,627.96093 383.58717,614.36511 384.69117,642.57059 C 385.90496,673.58104 374.86927,671.67863 364.50171,674.21895 C 365.95681,674.21895 367.4119,674.21895 368.867,674.21894 C 371.04964,674.21894 384.69117,666.85252 386.60099,670.12648 C 388.5108,673.40045 378.6889,678.3114 378.6889,678.3114"
       id="path2216"
       sodipodi:nodetypes="cccsscssc" />
    <path
       style="fill:none;fill-opacity:0.75;fill-rule:evenodd;stroke:#000000;stroke-width:2;stroke-linecap:butt;stroke-linejoin:miter;stroke-opacity:1"
       d="M 95.688508,257.53022 C 54.017706,242.09659 3.0867261,356.30545 4.6300891,413.40989 L 37.040713,345.50191 L 24.693809,411.86652 L 52.474343,354.76209"
       id="path2218" />
    <path
       style="fill:#ffffff;fill-opacity:1;fill-rule:evenodd;stroke:#000000;stroke-width:2;stroke-linecap:butt;stroke-linejoin:miter;stroke-opacity:1"
       d="M 69.451337,240.55323 L 92.601782,239.00986 L 83.341604,280.68066 C 83.341604,280.68066 55.561069,334.69837 49.387617,320.8081 C 43.214165,306.91784 35.49735,260.61694 40.127439,269.87712 C 44.757528,279.1373 64.821248,293.02757 64.821248,283.76739 C 64.821248,274.50721 67.907974,245.18331 69.451337,240.55323 z "
       id="path2220" />
    <path
       style="fill:none;fill-opacity:0.75;fill-rule:evenodd;stroke:#000000;stroke-width:2;stroke-linecap:butt;stroke-linejoin:miter;stroke-opacity:1"
       d="M 401.27439,257.53022 C 446.03192,248.27004 572.58769,382.54262 549.43724,425.75679 C 549.43724,425.75679 520.11334,374.82581 503.13635,367.10899 C 503.13635,367.10899 532.46025,450.4506 521.65671,490.57804 C 515.48325,475.14441 506.22308,442.73378 483.07263,413.40989"
       id="path2222" />
    <path
       style="fill:#ffffff;fill-opacity:0.75;fill-rule:evenodd;stroke:#000000;stroke-width:2;stroke-linecap:butt;stroke-linejoin:miter;stroke-opacity:1"
       d="M 439.85847,240.55323 C 439.85847,246.72668 419.79475,283.76739 425.9682,283.76739 C 432.14165,283.76739 439.85847,303.83111 446.03192,310.00456 C 452.20537,316.17801 481.52927,343.95855 481.52927,343.95855 L 490.78945,289.94084 C 490.78945,289.94084 453.74873,302.28775 449.11864,289.94084 C 444.48855,277.59394 438.3151,240.55323 439.85847,240.55323 z "
       id="path2224" />
  </g>
</svg>
