<?xml version="1.0" encoding="UTF-8" standalone="no"?>
<!-- Created with Inkscape (http://www.inkscape.org/) -->
<svg
   xmlns:dc="http://purl.org/dc/elements/1.1/"
   xmlns:cc="http://web.resource.org/cc/"
   xmlns:rdf="http://www.w3.org/1999/02/22-rdf-syntax-ns#"
   xmlns:svg="http://www.w3.org/2000/svg"
   xmlns="http://www.w3.org/2000/svg"
   xmlns:sodipodi="http://sodipodi.sourceforge.net/DTD/sodipodi-0.dtd"
   xmlns:inkscape="http://www.inkscape.org/namespaces/inkscape"
   width="279.61044"
   height="216.76871"
   id="svg2"
   sodipodi:version="0.32"
   inkscape:version="0.45.1"
   sodipodi:docname="FunDraw_dot_com_Clown_School_Graduate.svg"
   inkscape:output_extension="org.inkscape.output.svg.inkscape"
   sodipodi:docbase="C:\Documents and Settings\Shawn\Desktop"
   version="1.0">
  <defs
     id="defs4">
    <linearGradient
       id="linearGradient2840">
      <stop
         style="stop-color:#000000;stop-opacity:1;"
         offset="0"
         id="stop2842" />
      <stop
         id="stop2848"
         offset="0.5"
         style="stop-color:#a7a7a7;stop-opacity:0.49803922;" />
      <stop
         style="stop-color:#000000;stop-opacity:0;"
         offset="1"
         id="stop2844" />
    </linearGradient>
  </defs>
  <sodipodi:namedview
     id="base"
     pagecolor="#ffffff"
     bordercolor="#666666"
     borderopacity="1.0"
     gridtolerance="10000"
     guidetolerance="10"
     objecttolerance="10"
     inkscape:pageopacity="0.0"
     inkscape:pageshadow="2"
     inkscape:zoom="2.8325121"
     inkscape:cx="144.98488"
     inkscape:cy="114.03305"
     inkscape:document-units="px"
     inkscape:current-layer="layer1"
     inkscape:window-width="1152"
     inkscape:window-height="842"
     inkscape:window-x="0"
     inkscape:window-y="0" />
  <metadata
     id="metadata7">
    <rdf:RDF>
      <cc:Work
         rdf:about="">
        <dc:format>image/svg+xml</dc:format>
        <dc:type
           rdf:resource="http://purl.org/dc/dcmitype/StillImage" />
      </cc:Work>
    </rdf:RDF>
  </metadata>
  <g
     inkscape:label="Layer 1"
     inkscape:groupmode="layer"
     id="layer1"
     transform="translate(-263.17377,-158.42575)">
    <path
       style="opacity:1;fill:#ef6235;fill-opacity:1;fill-rule:evenodd;stroke:#e30000;stroke-width:1.70396483;stroke-linecap:round;stroke-linejoin:miter;stroke-miterlimit:4;stroke-dasharray:none;stroke-dashoffset:0;stroke-opacity:1"
       d="M 457.38585,174.10116 C 446.89072,174.10116 438.3864,181.03461 438.3864,189.58828 C 438.3864,189.80469 438.39756,190.02329 438.40836,190.23755 C 437.53563,187.8513 433.22999,186.03636 428.04103,186.03636 C 426.01875,186.03636 424.13303,186.3035 422.52789,186.78112 C 419.61924,186.17353 416.45964,185.8454 413.17094,185.8454 C 405.5675,185.8454 398.71594,187.61953 393.86398,190.46671 C 388.23605,185.42381 378.78464,182.12161 368.07744,182.12161 C 350.83683,182.12161 336.84367,190.69831 336.84366,201.27523 C 336.84366,201.30062 336.8435,201.32624 336.84366,201.35161 C 331.1907,204.67819 327.6185,209.5796 327.6185,215.06277 C 327.6185,216.02807 327.73433,216.98349 327.94797,217.90812 C 327.62777,217.88475 327.30866,217.86993 326.98152,217.86993 C 322.90794,217.86993 319.31915,219.72927 317.29509,222.51033 C 299.85251,224.32782 286.43471,235.23886 286.43471,248.40494 C 286.43471,260.60358 297.951,270.85873 313.51717,273.74576 C 316.20968,281.1281 325.3355,286.55939 336.16276,286.55939 C 342.82461,286.55939 348.82759,284.49681 353.09753,281.19333 C 356.71076,285.68951 362.75007,288.92799 369.83462,289.86305 C 371.78608,301.91112 382.50373,311.13635 395.42348,311.13636 C 401.35083,311.13636 406.80494,309.18772 411.17215,305.92306 C 412.87616,306.53493 414.70239,307.03746 416.61939,307.39348 C 421.8222,323.2874 434.99746,334.58664 450.42304,334.58664 C 470.39651,334.58664 486.59888,315.64343 486.59888,292.30738 C 486.59888,285.54667 485.23943,279.16656 482.82095,273.49751 C 497.29998,268.53886 506.54281,261.03388 506.54281,252.62523 C 506.54281,247.74017 503.40687,243.15656 497.95462,239.20052 C 499.35053,236.55491 500.15109,233.55843 500.15109,230.39712 C 500.15109,222.05039 494.6663,214.93448 486.95031,212.10284 C 485.24134,209.83764 482.94904,208.10544 480.33894,207.17599 C 480.72151,206.41848 480.92733,205.60414 480.95396,204.76985 C 481.42108,204.70741 481.67879,204.64491 481.67879,204.57889 C 481.67879,204.51262 481.42454,204.4506 480.95396,204.38793 C 480.83209,201.25863 478.03165,198.5616 473.94722,197.18861 C 475.50139,194.94314 476.40726,192.34851 476.40726,189.58828 C 476.40726,181.03461 467.88098,174.10116 457.38585,174.10116 z M 438.54015,191.517 C 438.82259,193.37073 439.50353,195.11981 440.51697,196.71121 C 439.9692,196.75958 439.43505,196.80944 438.91355,196.86397 C 438.4203,195.82211 437.73826,194.82386 436.87083,193.88495 C 437.80954,193.18918 438.40238,192.3919 438.54015,191.517 z M 359.97247,249.53163 C 361.71448,251.33926 363.94464,252.78805 366.49599,253.73282 C 362.14867,254.80311 358.33487,256.77023 355.42579,259.34714 C 355.37275,259.29063 355.32594,259.23129 355.27203,259.17527 C 356.9146,256.54412 357.96742,253.68573 358.32512,250.67741 C 358.90419,250.33163 359.46037,249.94642 359.97247,249.53163 z "
       id="path2858" />
    <path
       sodipodi:type="arc"
       style="opacity:1;fill:#fcfff7;fill-opacity:1;stroke:#000000;stroke-width:2.9000001;stroke-linecap:round;stroke-linejoin:miter;stroke-miterlimit:4;stroke-dasharray:none;stroke-dashoffset:0;stroke-opacity:1"
       id="path2773"
       sodipodi:cx="342.94678"
       sodipodi:cy="314.44574"
       sodipodi:rx="91.418808"
       sodipodi:ry="90.408653"
       d="M 434.36559 314.44574 A 91.418808 90.408653 0 1 1  251.52797,314.44574 A 91.418808 90.408653 0 1 1  434.36559 314.44574 z"
       transform="matrix(0.5236946,0,0,1.0044064,224.4616,-35.730747)" />
    <g
       id="g2824"
       transform="translate(-12,-2)">
      <path
         transform="matrix(1.3453709,0,0,1.74084,296.90862,-435.21953)"
         d="M 82.832508 393.23764 A 10.606602 13.637059 0 1 1  61.619305,393.23764 A 10.606602 13.637059 0 1 1  82.832508 393.23764 z"
         sodipodi:ry="13.637059"
         sodipodi:rx="10.606602"
         sodipodi:cy="393.23764"
         sodipodi:cx="72.225906"
         id="path2811"
         style="opacity:1;fill:#969696;fill-opacity:1;stroke:#0000fb;stroke-width:2.9000001;stroke-linecap:round;stroke-linejoin:miter;stroke-miterlimit:4;stroke-dasharray:none;stroke-dashoffset:0;stroke-opacity:1"
         sodipodi:type="arc" />
      <path
         transform="matrix(1.3453709,0,0,1.74084,455.27379,-148.92744)"
         d="M -41.416255 231.10817 A 4.5456862 5.0507627 0 1 1  -50.507627,231.10817 A 4.5456862 5.0507627 0 1 1  -41.416255 231.10817 z"
         sodipodi:ry="5.0507627"
         sodipodi:rx="4.5456862"
         sodipodi:cy="231.10817"
         sodipodi:cx="-45.961941"
         id="path2815"
         style="opacity:1;fill:#000000;fill-opacity:1;stroke:#ffffff;stroke-width:2.9000001;stroke-linecap:round;stroke-linejoin:miter;stroke-miterlimit:4;stroke-dasharray:none;stroke-dashoffset:0;stroke-opacity:1"
         sodipodi:type="arc" />
      <path
         transform="matrix(1.3453709,0,0,1.74084,341.07709,-434.09282)"
         d="M 82.832508 393.23764 A 10.606602 13.637059 0 1 1  61.619305,393.23764 A 10.606602 13.637059 0 1 1  82.832508 393.23764 z"
         sodipodi:ry="13.637059"
         sodipodi:rx="10.606602"
         sodipodi:cy="393.23764"
         sodipodi:cx="72.225906"
         id="path2820"
         style="opacity:1;fill:#969696;fill-opacity:1;stroke:#0000fb;stroke-width:2.9000001;stroke-linecap:round;stroke-linejoin:miter;stroke-miterlimit:4;stroke-dasharray:none;stroke-dashoffset:0;stroke-opacity:1"
         sodipodi:type="arc" />
      <path
         transform="matrix(1.3453709,0,0,1.74084,499.44227,-147.80074)"
         d="M -41.416255 231.10817 A 4.5456862 5.0507627 0 1 1  -50.507627,231.10817 A 4.5456862 5.0507627 0 1 1  -41.416255 231.10817 z"
         sodipodi:ry="5.0507627"
         sodipodi:rx="4.5456862"
         sodipodi:cy="231.10817"
         sodipodi:cx="-45.961941"
         id="path2822"
         style="opacity:1;fill:#000000;fill-opacity:1;stroke:#ffffff;stroke-width:2.9000001;stroke-linecap:round;stroke-linejoin:miter;stroke-miterlimit:4;stroke-dasharray:none;stroke-dashoffset:0;stroke-opacity:1"
         sodipodi:type="arc" />
    </g>
    <rect
       style="opacity:1;fill:#000000;fill-opacity:1;stroke:#000000;stroke-width:1.10153115;stroke-linecap:round;stroke-linejoin:miter;stroke-miterlimit:4;stroke-dasharray:none;stroke-dashoffset:0;stroke-opacity:1"
       id="rect2170"
       width="163.62305"
       height="117.9385"
       x="28.531124"
       y="-598.52637"
       ry="0"
       transform="matrix(-0.9809378,0.1943222,-0.9458139,-0.3247091,0,0)" />
    <path
       style="fill:none;fill-rule:evenodd;stroke:#ffc700;stroke-width:6.23851347;stroke-linecap:butt;stroke-linejoin:miter;stroke-miterlimit:4;stroke-dasharray:none;stroke-opacity:1"
       d="M 402.25426,192.95882 C 426.15652,188.46621 465.92293,217.12918 487.55786,207.07913 C 494.50713,203.85097 485.48594,227.459 486.07446,237.48205 C 486.43071,243.54973 485.85492,249.30916 485.35279,255.44984 C 485.20921,257.2063 485.06556,258.9628 484.92195,260.71923"
       id="path2769" />
    <path
       sodipodi:type="arc"
       style="opacity:1;fill:#000000;fill-opacity:1;stroke:#ffb1bc;stroke-width:2.4000001;stroke-linecap:round;stroke-linejoin:miter;stroke-miterlimit:4;stroke-dasharray:none;stroke-dashoffset:0;stroke-opacity:1"
       id="path2751"
       sodipodi:cx="25.253813"
       sodipodi:cy="260.90765"
       sodipodi:rx="13.131983"
       sodipodi:ry="4.5456862"
       d="M 38.385796 260.90765 A 13.131983 4.5456862 0 1 1  12.12183,260.90765 A 13.131983 4.5456862 0 1 1  38.385796 260.90765 z"
       transform="translate(382.88842,-68.812204)" />
    <path
       style="fill:#000000;fill-opacity:0;fill-rule:evenodd;stroke:#ded200;stroke-width:13.80000019;stroke-linecap:butt;stroke-linejoin:miter;stroke-miterlimit:4;stroke-dasharray:none;stroke-opacity:1"
       d="M 485.69973,251.25218 C 484.84295,256.65028 484.91383,268.6373 484.91383,277.45335 C 484.91383,280.67771 483.9212,278.9423 482.89353,280.48381"
       id="path2771" />
    <path
       sodipodi:type="arc"
       style="opacity:1;fill:#ff0403;fill-opacity:1;stroke:#000000;stroke-width:1.30400002;stroke-linecap:round;stroke-linejoin:miter;stroke-miterlimit:4;stroke-dasharray:none;stroke-dashoffset:0;stroke-opacity:1"
       id="path2836"
       sodipodi:cx="404.68689"
       sodipodi:cy="287.96677"
       sodipodi:rx="22.607637"
       sodipodi:ry="16.882538"
       d="M 427.29453 287.96677 A 22.607637 16.882538 0 1 1  382.07925,287.96677 A 22.607637 16.882538 0 1 1  427.29453 287.96677 z" />
    <g
       id="g2854"
       transform="matrix(0.6827289,0,0,0.5813758,156.22133,74.94494)">
      <path
         sodipodi:nodetypes="cscssc"
         id="path2852"
         d="M 305.53999,383.55227 C 315.14782,411.00731 321.79938,445.32613 366.88226,448.26772 C 411.96513,451.20935 423.79014,395.31872 423.79014,395.31872 C 423.79014,395.31872 407.53075,416.89055 389.05416,417.87107 C 370.57758,418.85162 347.75626,416.63197 336.58065,417.87107 C 319.59504,419.75436 308.49625,384.53281 305.53999,383.55227 z "
         style="fill:#ff0403;fill-opacity:1;fill-rule:evenodd;stroke:#e30000;stroke-width:2.7372098;stroke-linecap:butt;stroke-linejoin:miter;stroke-miterlimit:4;stroke-dasharray:none;stroke-opacity:1" />
      <path
         sodipodi:nodetypes="cscssc"
         id="path2838"
         d="M 314.74575,403.59424 C 322.6147,420.00968 328.06243,440.529 364.98595,442.28778 C 401.90947,444.04659 411.59432,410.62943 411.59432,410.62943 C 411.59432,410.62943 398.27764,423.52729 383.14505,424.11354 C 368.01247,424.69981 349.32148,423.37268 340.1685,424.11354 C 326.25704,425.23957 317.16697,404.18051 314.74575,403.59424 z "
         style="fill:#ffffff;fill-opacity:1;fill-rule:evenodd;stroke:#e30000;stroke-width:1.91544235;stroke-linecap:butt;stroke-linejoin:miter;stroke-miterlimit:4;stroke-dasharray:none;stroke-opacity:1" />
    </g>
    <path
       sodipodi:type="arc"
       style="opacity:1;fill:none;fill-opacity:1;fill-rule:evenodd;stroke:#e30000;stroke-width:6.76073456;stroke-linecap:round;stroke-linejoin:miter;stroke-miterlimit:4;stroke-dasharray:none;stroke-dashoffset:0;stroke-opacity:1"
       id="path2923"
       sodipodi:cx="-45.961941"
       sodipodi:cy="298.78839"
       sodipodi:rx="29.7995"
       sodipodi:ry="11.111679"
       d="M -16.162441,298.78839 A 29.7995,11.111679 0 0 1 -75.717073,299.39451"
       sodipodi:start="0"
       sodipodi:end="3.0870173"
       sodipodi:open="true"
       transform="matrix(0.4947632,0,0,0.564838,429.44273,170.78991)" />
  </g>
</svg>
